Patient4_TMGait_0pt6_01_right_10_EMG.mot
version=1
nRows=33
nColumns=33
inDegrees=no
endheader
time	1LAddLong	2LGlutMax	3LGlutMed	4LIliopsoas	5LSemiMemb	6LBicFemLong	7LRecFem	8LVastMed	9LVastLat	10LGasMed	11LTibAnt	12lTibPost	13LPeroneusLong	14LSol	15LExtDigLong	16LFlexDigLong	17RAddLong	18RGlutMax	19RGlutMed	20RIliopsoas	21RSemiMemb	22RBicFemLong	23RRecFem	24RVastMed	25RVastLat	26RGasMed	27RTibAnt	28RTibPost	29RPeroneusLong	30RSol	31RExtDigLong	32RFlexDigLong
12.41	0.004578	0.077209	-0.10986	0.005035	-0.063629	-0.49759	0.049896	0.023193	-0.095825	0.021973	0.012665	0.010376	-0.040741	-0.001526	-0.058441	0.013275	-0.018921	-0.21347	-0.059509	-0.03952	0.089569	-0.054932	-0.090942	-0.12375	-0.051117	0.001526	0.12558	-0.000305	-0.29343	-0.16159	-0.001068	-0.014496
12.411	-0.005188	0.025635	-0.15579	0	-0.086365	-0.5542	0.050354	0.029449	-0.014038	0.00061	0.012665	0.006714	-0.090485	-0.029449	0.010223	0.00473	-0.000153	-0.20477	-0.000916	-0.071716	0.031433	0.062256	-0.035553	-0.13443	-0.048523	0.013428	0.24109	-0.002136	-0.07843	-0.32654	0	-0.002289
12.412	-0.001526	0.005646	-0.1561	0.011444	-0.091248	-0.48599	0.042877	0.035858	0.15213	0.011749	0.034943	-0.001831	-0.075836	0.003662	0.030823	0.000305	0.00885	-0.19409	0.030212	-0.13153	-0.018921	0.12894	-0.078278	-0.12924	-0.08606	0.022888	-0.009155	0.001068	0.17197	-0.41809	-0.002899	-0.012054
12.413	0.011597	-0.023499	-0.074158	0.011139	0.039825	-0.47806	0.035858	0.031433	0.31464	-0.015869	0.037689	-0.002899	0.075378	-0.00824	0.032806	0.009918	0.016022	-0.19836	-0.1059	-0.087128	0.007477	0.15488	-0.3122	0.076294	-0.052185	0.020142	-0.032196	-0.004272	0.2066	-0.50461	0.005188	-0.013733
12.414	0.015564	-0.014801	-0.077362	-0.001678	-0.020447	-0.30121	-0.029144	0.020447	0.27176	-0.045013	0.019836	0.000458	0.02243	-0.013123	0.013733	0.004578	0.000916	-0.22247	0.051422	-0.084686	0.018463	0.097351	-0.72525	0.10223	-0.12482	0.008698	0.088501	-0.007935	-0.056152	-0.53375	-0.003204	-0.003357
12.415	0.006104	-0.027008	-0.088959	-0.013733	-0.090332	0.096283	-0.010071	0.016022	0.095367	-0.018158	0.002136	-0.001373	-0.025635	-0.035706	-0.007935	0.008545	-0.004578	-0.19562	-0.082855	0.12329	0.046997	-0.010834	-0.78323	0.070343	-0.038757	0.002136	0.016022	-0.011139	-0.32913	-0.44678	-0.001068	-0.019073
12.416	-0.009613	0.019989	-0.045166	-0.011597	0.01236	0.27985	-0.10681	-0.00473	-0.006104	0.001221	-0.041656	0.001068	0.05188	-0.013275	0.027924	0.015259	0.001221	-0.11292	-0.23453	0.30838	0.04776	-0.11963	-0.4863	-0.000153	0.077972	-0.005798	-0.10925	-0.009766	-0.40146	-0.18066	0.001984	-0.021515
12.417	-0.006866	0.032806	-0.052338	-0.005646	-0.063019	0.3067	-0.056305	-0.021667	-0.028992	0.011292	-0.11246	0.005341	0.030975	0.04425	0.039063	0.006866	0.014954	-0.061798	0.33783	0.24689	0.026703	-0.17349	-0.1799	-0.049133	-0.007019	-0.000458	0.28366	-0.011597	0.4007	0.031433	-0.00061	-0.023193
12.418	-0.014954	0.003967	-0.081482	-0.004425	-0.16022	0.34378	0.074768	-0.037689	-0.070801	0.016022	-0.14267	0.008392	-0.005493	0.063934	0.049896	0.004883	-0.002441	-0.14206	0.30243	0.098114	0.028687	-0.11169	-0.26474	-0.038605	-0.082245	-0.000153	0.616	-0.011749	0.2977	0.11093	0.003815	-0.02655
12.419	0.00351	0.02182	-0.043793	-0.005798	-0.12344	0.29648	0.14648	-0.03952	-0.27695	0.028839	-0.12787	0.007782	0.060272	0.095825	0.12482	0.017242	-0.012817	-0.1651	-0.12161	0.040283	0.011139	-0.070801	-0.46768	-0.00885	-0.056152	-0.00824	0.11475	-0.008087	-0.099182	0.024567	-0.003662	-0.021057
12.42	-0.018005	-0.033569	-0.029449	0.000458	0.094452	0.16083	0.11459	-0.005646	-0.42969	0.011139	-0.028534	0.007324	0.13596	0.11948	0.11231	0.020294	-0.050354	-0.11337	-0.28976	-0.028381	-0.003662	-0.003967	-0.64316	0.027008	0.14862	-0.011902	-0.17166	-0.010681	0.002899	-0.06134	-0.003662	-0.018005
12.421	0.042572	-0.083618	-0.076752	0.01297	0.21912	0.006714	0.046844	0.014343	-0.55359	0.008087	0.063171	0.007019	0.12024	0.1532	0.17273	0.024109	-0.047302	-0.079041	-0.168	-0.095062	-0.024109	-0.006409	-0.44388	0.034485	0.15991	-0.019379	-0.15243	-0.008087	0.05188	0.00061	-0.007782	-0.023804
12.422	0.012512	-0.09964	-0.084381	0.010529	0.2124	0.027008	-0.02182	0.028992	-0.44846	-0.005188	0.24796	0.001526	0.090485	0.18265	0.42938	0.024567	-0.040741	-0.12314	-0.018311	-0.06012	-0.054932	-0.000916	-0.33554	-0.006866	0.058594	-0.008392	-0.41351	-0.009613	-0.13779	-0.015869	0.000305	-0.019836
12.423	0.033722	-0.054474	-0.042419	0.000916	0.14496	-0.016327	-0.13062	0.012665	-0.22217	-0.00061	0.48172	0.009766	-0.019684	0.16144	0.64499	0.03891	-0.035248	-0.15335	-0.34729	0.019226	-0.018005	-0.052643	-0.33646	-0.01358	0.027008	0.007477	-0.41077	-0.004272	1.1324	-0.11078	0.000458	-0.010986
12.424	0.020752	-0.044098	-0.034332	0.007782	0.18249	-0.36911	-0.16586	-0.019379	-0.17181	-0.013885	0.35416	0.013885	0.29541	0.15533	-0.058289	0.045929	0.024109	-0.16647	-0.11856	-0.007172	-0.005646	-0.072479	-0.3154	-0.023499	0.019073	0.011292	-0.023499	-0.012665	1.0576	-0.19028	0.001068	-0.014343
12.425	0.034637	0.02243	0.009766	-0.012817	0.17731	-0.63049	-0.32623	-0.041504	-0.10483	-0.031128	0.22492	0.019073	0.34256	0.1799	-0.36667	0.050812	0.048523	-0.13611	-0.25696	0.036621	0.023804	-0.006409	-0.38513	-0.017242	0.026855	0.007629	0.3569	-0.007477	0.83191	-0.30746	-0.007935	-0.010376
12.426	0.03891	0.052185	-0.036774	0.01709	0.12466	-0.62195	-0.38559	-0.058746	-0.027771	-0.020294	-0.11215	0.017395	-0.010986	0.12756	-0.52948	0.047302	0.032959	-0.19058	-0.32486	0.032349	0.021057	-0.094757	-0.36148	-0.068665	0.025635	0.00412	0.8046	-0.006256	-1.5796	-0.19699	0.002441	-0.021667
12.427	0.03006	0.079193	-0.087128	0.001831	0.077972	-0.36911	-0.31738	-0.046234	0.035706	0.010834	-0.23956	0.019226	-0.28122	0.079803	-0.72433	0.03006	0.046387	-0.17975	-0.15976	0.029907	-0.001678	-0.23453	-0.38101	-0.035248	0.014038	0.015564	0.51666	-0.007782	-0.46707	-0.27512	-0.000153	-0.023804
12.428	0.010071	0.035553	-0.12741	0.018005	0.068359	-0.23086	-0.20737	-0.012054	0.065613	0.057983	-0.12543	0.016479	0.33691	-0.10452	-0.71716	0.018463	0.026398	-0.20783	-0.04303	0.069427	-0.009003	-0.22263	-0.33096	-0.035706	0.014954	0.023346	-0.082855	-0.007935	0.16296	-0.1915	-0.00061	-0.021362
12.429	-0.010071	-0.005493	-0.089722	0.015106	0.027771	-0.095215	-0.065918	-0.012817	0.036621	0.045776	-0.10117	0.023193	0.72113	-0.22766	-0.31006	0.018463	0.019989	-0.19028	-0.021667	0.088043	0.047607	-0.10971	-0.33859	0.018616	0.029297	0.016327	0.07019	-0.005798	0.42175	-0.078583	-0.003357	-0.023193
12.43	-0.022583	-0.054169	-0.031586	0.015411	0.033264	0.12589	0.032043	-0.002441	0.077972	0.005493	-0.10101	0.018768	0.85129	-0.02533	0.18265	0.015564	0.013123	-0.20142	-0.083466	-0.005951	0.11002	0.045166	-0.3331	0.029297	0.007629	0.006714	0.20584	-0.008545	-0.177	-0.020599	-0.003052	-0.020905
12.431	-0.010223	-0.048676	0.003967	0.010834	0.038452	0.075531	-0.024261	0.019531	0.036774	0.000458	-0.036163	0.016632	0.21484	0.078888	0.2803	0.014801	0.045166	-0.224	-0.02243	-0.12131	0.08728	0.11658	-0.29053	0.051727	-0.013428	-0.000458	0.11078	-0.007935	-0.66559	0.20477	-0.005035	-0.030823
12.432	-0.007782	-0.056458	-0.10864	0.037689	0.027771	-0.005798	-0.11856	0.005341	-0.049286	0.027008	-0.003204	0.016632	-0.31265	-0.00061	0.12772	0.001221	0.064697	-0.17258	0.018311	-0.1004	-0.006409	0.091095	-0.32028	0.005798	-0.02533	-0.005798	0.054626	-0.005798	-0.85709	0.18845	-0.001678	-0.028687
12.433	0.002289	-0.044403	-0.1416	0.026093	0.014954	0.10803	-0.095215	0.013275	-0.15427	0.009155	-0.001678	0.012054	-0.37064	-0.10452	0.085144	-0.004883	0.070343	-0.2124	0.027924	0.010834	0.015106	0.25894	-0.28091	0.009613	-0.027313	-0.00824	-0.052795	-0.009155	-0.2034	0.26306	-0.002289	-0.027924
12.434	-0.007629	-0.051575	-0.097656	0.006104	-0.011139	0.19318	-0.06134	0.035248	-0.071716	0.030212	-0.04364	0.013275	-0.11093	-0.14465	0.093842	-0.001678	0.045471	-0.21362	-0.070343	0.011292	0.082397	0.18662	-0.27222	0.031281	-0.032501	-0.006409	-0.73975	-0.009613	0.093079	0.41626	-0.002899	-0.033722
12.435	-0.015106	-0.021362	-0.013885	0.016174	-0.019226	0.15182	-0.041656	0.033722	-0.053711	0.017853	-0.084076	0.009918	-0.041351	-0.090637	0.069427	-0.011292	0.041351	-0.16693	-0.10971	-0.082397	0.058594	0.07019	-0.28793	0.022125	-0.032806	0.009003	-0.737	-0.001068	0.077667	0.40359	0	-0.022583
12.436	-0.001984	0.001678	0.049896	0.010681	0.031891	0.22156	-0.013123	0.0177	0.022125	-0.028076	-0.061798	0.005798	-0.28366	-0.001678	0.0177	-0.025177	0.065765	-0.14816	-0.11749	-0.16022	-0.048828	0.01297	-0.28336	0.066681	-0.050659	0.010681	-0.17685	-0.000916	0.26733	0.25284	-0.00061	-0.01297
12.437	0.003204	-0.014038	0.016022	0.014496	0.027771	0.22781	0.008392	-0.007019	0.040131	-0.000153	-0.050812	0.010223	-0.17593	0.093689	-0.060425	-0.037079	0.06958	-0.1413	-0.13336	-0.080566	-0.065613	0.041046	-0.25497	-0.014648	-0.060577	-0.002594	0.30365	-0.001678	0.2887	0.16617	0	-0.018005
12.438	0.001221	-0.030212	-0.053101	0.014648	-0.032959	0.28488	-0.036621	-0.019989	0.12314	0.016632	0.027008	0.015564	-0.15121	0.18448	0.011292	-0.040741	0.015717	-0.18295	-0.14481	-0.004272	0.023956	0.050812	-0.2211	-0.057526	-0.049286	-0.007172	0.46066	-0.000916	0.15381	0.15213	-0.001831	-0.018921
12.439	-0.003967	0.034637	-0.001373	0.001068	-0.066986	0.29739	-0.017548	-0.013733	0.15793	-0.011902	0.20325	0.014191	-0.12222	0.24185	0.16617	-0.035095	-0.03479	-0.18127	-0.062866	0.10956	0.073242	-0.037994	-0.26688	0.018616	-0.046234	-0.007782	0.5249	-0.003815	0.06546	0.14771	-0.001678	-0.014038
12.44	-0.004272	0.1033	0.045929	-0.004272	-0.10986	0.26062	-0.006256	-0.021667	0.12909	-0.011292	0.30304	0.005341	-0.14816	0.31052	0.1831	-0.032959	-0.037842	-0.1799	-0.058136	0.20935	0.16403	-0.085144	-0.24429	-0.032654	-0.027466	-0.00412	-0.22247	-0.001068	0.055084	0.13153	-0.003052	-0.016022
12.441	0.003815	0.14053	0.10773	0.008087	-0.068359	0.10956	-0.065765	-0.018311	0.17487	-0.032349	0.20416	0.01358	-0.07782	0.24857	0.21423	-0.032806	-0.045166	-0.22522	-0.075531	0.19348	0.22598	0.005951	-0.26596	0.020599	-0.020294	0.006256	-1.0005	-0.002899	0.095673	0.081177	-0.000458	-0.023651
12.442	0.015106	0.20554	0.16556	0.021515	0.016479	0.092163	-0.074005	-0.001984	0.11078	-0.03952	0.085602	0.00946	-0.019836	0.3685	1.0455	-0.036163	-0.010834	-0.20523	-0.17777	0.076294	0.14618	0.045166	-0.21027	-0.059509	-0.022736	0.00824	-0.55176	-0.001831	-0.12466	0.043335	-0.002899	-0.024872
